<svg width="427" height="290" viewBox="0 0 427 290" fill="none" xmlns="http://www.w3.org/2000/svg">
<g clip-path="url(#clip0_91_163)">
<mask id="mask0_91_163" style="mask-type:luminance" maskUnits="userSpaceOnUse" x="0" y="0" width="427" height="290">
<path d="M426.5 0H0.5V290H426.5V0Z" fill="white"/>
</mask>
<g mask="url(#mask0_91_163)">
<mask id="mask1_91_163" style="mask-type:luminance" maskUnits="userSpaceOnUse" x="21" y="29" width="384" height="262">
<path d="M21.6 29.1H405V290.1H21.6V29.1Z" fill="white"/>
</mask>
<g mask="url(#mask1_91_163)">
<path d="M28.8 125.4C32.7737 125.4 36 128.626 36 132.6C36 136.574 32.7737 139.8 28.8 139.8C24.8263 139.8 21.6 136.574 21.6 132.6C21.6 128.626 24.8263 125.4 28.8 125.4Z" fill="#32DFFF"/>
<path d="M360 183C363.974 183 367.2 186.226 367.2 190.2C367.2 194.174 363.974 197.4 360 197.4C356.026 197.4 352.8 194.174 352.8 190.2C352.8 186.226 356.026 183 360 183Z" fill="#32DFFF"/>
<path d="M297 30C300.974 30 304.2 33.2263 304.2 37.2C304.2 41.1737 300.974 44.4 297 44.4C293.026 44.4 289.8 41.1737 289.8 37.2C289.8 33.2263 293.026 30 297 30Z" stroke="#24AADA" stroke-width="1.8"/>
</g>
<mask id="mask2_91_163" style="mask-type:luminance" maskUnits="userSpaceOnUse" x="21" y="28" width="385" height="262">
<path d="M21.8 28.9H405.2V289.9H21.8V28.9Z" fill="white"/>
</mask>
<g mask="url(#mask2_91_163)">
<path d="M85.4055 69.383C79.4544 69.7172 74.3512 65.1566 74.017 59.2055C73.6828 53.2544 78.2434 48.1512 84.1945 47.817C90.1456 47.4828 95.2488 52.0433 95.583 57.9945C95.9172 63.9456 91.3567 69.0488 85.4055 69.383Z" stroke="#24AADA" stroke-width="1.8"/>
<path d="M49.7275 213.45L47.8843 197.355L49.6726 197.15L51.5158 213.245L49.7275 213.45ZM42.6492 207.013L42.4444 205.225L56.7509 203.587L56.9557 205.375L42.6492 207.013Z" fill="#A6F7FF"/>
<path d="M403.021 131.619L391.692 120.039L392.979 118.781L404.308 130.361L403.021 131.619ZM393.483 130.878L392.224 129.592L402.517 119.522L403.776 120.808L393.483 130.878Z" fill="#A6F7FF"/>
<path d="M213.871 59.7344L202.814 47.8941L204.129 46.6656L215.186 58.5058L213.871 59.7344ZM204.352 58.7718L203.123 57.4562L213.648 47.6281L214.877 48.9437L204.352 58.7718Z" fill="#A6F7FF"/>
</g>
<mask id="mask3_91_163" style="mask-type:luminance" maskUnits="userSpaceOnUse" x="0" y="2" width="427" height="291">
<path d="M0.5 2.99854H426.5V292.999H0.5V2.99854Z" fill="white"/>
</mask>
<g mask="url(#mask3_91_163)">
<mask id="mask4_91_163" style="mask-type:luminance" maskUnits="userSpaceOnUse" x="0" y="2" width="427" height="291">
<path d="M0.5 2.99854H426.5V292.999H0.5V2.99854Z" fill="white"/>
</mask>
<g mask="url(#mask4_91_163)">
<path d="M232.271 175.801L263.881 207.41L246.595 224.696L214.985 193.087L232.271 175.801Z" fill="#FFAE44"/>
<path d="M264.135 195.786L302.678 234.328C306.58 238.231 306.58 244.568 302.678 248.47L287.055 264.093C283.152 267.996 276.815 267.996 272.913 264.093L234.37 225.551C230.468 221.648 230.468 215.311 234.37 211.409L249.993 195.786C253.896 191.883 260.233 191.883 264.135 195.786Z" fill="#314CF9"/>
<path d="M237.339 190.298C262.076 165.428 262.05 125.086 237.296 100.189C212.541 75.2918 172.418 75.2788 147.691 100.148C122.955 125.019 122.971 165.361 147.734 190.248C172.488 215.145 212.603 215.169 237.339 190.298Z" fill="#314CF9"/>
<path d="M155.218 109.833C174.73 90.3215 206.429 90.3369 225.959 109.867C245.49 129.398 245.505 161.097 225.994 180.608C206.482 200.119 174.783 200.104 155.253 180.574C135.722 161.043 135.707 129.344 155.218 109.833Z" fill="white"/>
</g>
<g opacity="0.92">
<path d="M176.045 131.613C178.498 131.613 180.489 135.409 180.489 140.084C180.489 144.759 178.498 148.555 176.045 148.555C173.592 148.555 171.6 144.759 171.6 140.084C171.6 135.409 173.592 131.613 176.045 131.613Z" fill="black"/>
</g>
<g opacity="0.92">
<path d="M204.083 131.613C206.536 131.613 208.527 135.409 208.527 140.084C208.527 144.759 206.536 148.555 204.083 148.555C201.63 148.555 199.638 144.759 199.638 140.084C199.638 135.409 201.63 131.613 204.083 131.613Z" fill="black"/>
</g>
<path d="M248.5 145.583C258.44 145.583 266.5 139.693 266.5 132.423C266.5 125.153 248.5 107.583 248.5 107.583C248.5 107.583 230.5 125.153 230.5 132.423C230.5 139.693 238.56 145.583 248.5 145.583Z" fill="url(#paint0_linear_91_163)"/>
<path d="M201 164.861C187.324 158.023 176.362 165.645 178.163 165.255C186.038 163.549 201.525 165.124 201 164.861Z" fill="#454A52"/>
</g>
<path d="M185.902 266.5C194.977 266.5 202.346 267.985 202.346 269.815C202.346 271.645 194.977 273.131 185.902 273.131C176.827 273.131 169.458 271.645 169.458 269.815C169.458 267.985 176.827 266.5 185.902 266.5Z" fill="#65A7FF"/>
</g>
</g>
<defs>
<linearGradient id="paint0_linear_91_163" x1="248.519" y1="117.347" x2="258.708" y2="145.583" gradientUnits="userSpaceOnUse">
<stop stop-color="#B0F9FF"/>
<stop offset="0.5" stop-color="#B6F3FE"/>
<stop offset="1" stop-color="#BCEEFD"/>
</linearGradient>
<clipPath id="clip0_91_163">
<rect width="426" height="290" fill="white" transform="translate(0.5)"/>
</clipPath>
</defs>
</svg>
