<svg width="564" height="530" viewBox="0 0 564 530" fill="none" xmlns="http://www.w3.org/2000/svg">
<path d="M405.971 492.459H428.74" stroke="black" stroke-width="0.665" stroke-linecap="round" stroke-linejoin="round"/>
<path d="M436.155 475.681C439.564 475.906 443.263 477.007 446.207 475.272C448.996 473.627 449.91 470.126 451.021 467.085C452.131 464.044 454.341 460.73 457.578 460.813C460.638 460.893 463.459 464.09 466.287 462.918C467.936 462.235 468.698 460.28 468.75 458.495C468.802 456.71 468.327 454.943 468.327 453.158C468.329 447.687 473.529 442.784 478.989 443.102C481.424 443.244 483.725 444.261 486.142 444.585C489.378 445.019 492.893 444.065 495.09 441.649C497.287 439.233 497.829 435.292 495.94 432.628C493.827 429.647 489.713 429.072 486.074 428.754C476.027 427.875 465.587 427.045 456.135 430.567C446.513 434.152 438.915 442.002 433.907 450.965C430.317 457.389 427.931 464.402 426.112 471.509C425.711 473.077 424.865 476.755 424.865 476.755C424.865 476.755 425.774 476.961 427.327 477.266C430.309 477.851 433.109 475.48 436.155 475.681Z" fill="#75C675"/>
<path d="M481.436 435.543C481.436 435.543 441.325 434.718 416.94 492.442" stroke="black" stroke-width="0.665" stroke-linecap="round" stroke-linejoin="round"/>
<path d="M405.461 462.121C401.531 460.298 396.747 459.27 394.529 455.549C392.427 452.023 393.539 447.572 394.154 443.513C394.769 439.455 394.327 434.425 390.676 432.548C387.224 430.775 382.14 432.616 379.708 429.592C378.289 427.828 378.631 425.19 379.66 423.172C380.689 421.155 382.289 419.48 383.375 417.493C386.702 411.408 383.902 402.789 377.634 399.82C374.84 398.498 371.662 398.228 368.776 397.118C364.913 395.631 361.584 392.433 360.61 388.41C359.636 384.387 361.432 379.67 365.153 377.857C369.316 375.828 374.241 377.689 378.483 379.55C390.195 384.686 402.312 390.114 410.682 399.782C419.203 409.625 422.881 422.976 422.998 435.994C423.083 445.324 422.808 455.315 420.508 464.328C420 466.316 417.585 474.185 417.585 474.185C417.585 474.185 408.971 463.75 405.461 462.121Z" fill="white"/>
<path d="M405.461 462.121C401.531 460.298 396.747 459.27 394.529 455.549C392.427 452.023 393.539 447.572 394.154 443.513C394.769 439.455 394.327 434.425 390.676 432.548C387.224 430.775 382.14 432.616 379.708 429.592C378.289 427.828 378.631 425.19 379.66 423.172C380.689 421.155 382.289 419.48 383.375 417.493C386.702 411.408 383.902 402.789 377.634 399.82C374.84 398.498 371.662 398.228 368.776 397.118C364.913 395.631 361.584 392.433 360.61 388.41C359.636 384.387 361.432 379.67 365.153 377.857C369.316 375.828 374.241 377.689 378.483 379.55C390.195 384.686 402.312 390.114 410.682 399.782C419.203 409.625 422.881 422.976 422.998 435.994C423.083 445.324 422.808 455.315 420.508 464.328C420 466.316 417.585 474.185 417.585 474.185C417.585 474.185 408.971 463.75 405.461 462.121Z" stroke="black" stroke-width="0.665" stroke-linecap="round" stroke-linejoin="round"/>
<path d="M379.511 389.924C379.511 389.924 424.631 413.411 416.634 492.455" stroke="black" stroke-width="0.665" stroke-linecap="round" stroke-linejoin="round"/>
<path d="M404.072 490.643C402.148 491.218 400.099 491.797 398.164 491.264C393.829 490.073 392.128 484.007 387.716 483.142C385.335 482.675 383.003 483.923 380.738 484.795C378.473 485.666 375.574 486.053 373.903 484.293C371.861 482.144 373.083 478.354 371.404 475.91C370.095 474.004 367.385 473.562 365.137 474.108C362.89 474.654 360.92 475.967 358.834 476.967C356.748 477.967 354.319 478.663 352.139 477.887C349.334 476.888 347.807 473.554 348.289 470.615C348.77 467.676 350.898 465.208 353.435 463.649C355.972 462.091 358.904 461.314 361.804 460.641C366.798 459.482 371.891 458.561 377.017 458.662C385.571 458.831 394.039 461.949 400.66 467.369C405.215 471.098 408.875 475.898 411.318 481.249C412.117 483.001 413.997 489.629 413.997 489.629C413.997 489.629 406.336 489.966 404.072 490.643Z" fill="#CAD5FF"/>
<path d="M416.669 492.454C416.669 492.454 392.615 461.205 363.256 468.338" stroke="black" stroke-width="0.665" stroke-linecap="round" stroke-linejoin="round"/>
<path d="M548.934 32.9497V312.033C548.934 317.916 544.164 322.686 538.281 322.686H330.628C324.745 322.686 319.975 317.916 319.975 312.033V32.9497C319.975 27.0669 324.745 22.2966 330.628 22.2966H538.281C544.164 22.2966 548.934 27.0669 548.934 32.9497Z" fill="white"/>
<path d="M548.934 32.9497V312.033C548.934 317.916 544.164 322.686 538.281 322.686H330.628C324.745 322.686 319.975 317.916 319.975 312.033V32.9497C319.975 27.0669 324.745 22.2966 330.628 22.2966H538.281C544.164 22.2966 548.934 27.0669 548.934 32.9497Z" stroke="black" stroke-width="0.465" stroke-linecap="round" stroke-linejoin="round"/>
<path d="M481.16 97.3048C481.16 110.239 475.896 121.947 467.391 130.405C458.952 138.815 447.301 144.004 434.451 144.004C421.601 144.004 409.957 138.815 401.518 130.405C393.013 121.947 387.751 110.239 387.751 97.3048C387.751 71.5097 408.665 50.6052 434.451 50.6052C460.246 50.6052 481.16 71.5097 481.16 97.3048Z" fill="white"/>
<path d="M481.16 97.3048C481.16 110.239 475.896 121.947 467.391 130.405C458.952 138.815 447.301 144.004 434.451 144.004C421.601 144.004 409.957 138.815 401.518 130.405C393.013 121.947 387.751 110.239 387.751 97.3048C387.751 71.5097 408.665 50.6052 434.451 50.6052C460.246 50.6052 481.16 71.5097 481.16 97.3048Z" stroke="black" stroke-width="0.465" stroke-linecap="round" stroke-linejoin="round"/>
<path d="M467.391 130.404C458.952 138.815 447.3 144.004 434.45 144.004C421.6 144.004 409.957 138.815 401.518 130.404C409.376 120.964 421.216 114.959 434.45 114.959C447.694 114.959 459.533 120.964 467.391 130.404Z" fill="#FFAE44"/>
<path d="M467.391 130.404C458.952 138.815 447.3 144.004 434.45 144.004C421.6 144.004 409.957 138.815 401.518 130.404C409.376 120.964 421.216 114.959 434.45 114.959C447.694 114.959 459.533 120.964 467.391 130.404Z" stroke="black" stroke-width="0.665" stroke-linecap="round" stroke-linejoin="round"/>
<path d="M418.702 98.797C419.655 104.875 422.446 111.095 427.361 111.353L427.571 116.766L428.057 129.408C427.863 136.065 441.541 128.698 444.349 120.834V79.9315C426.799 76.53 414.929 79.2471 418.702 98.797Z" fill="#FBFBFB"/>
<path d="M444.349 120.834V79.9315C426.799 76.53 414.929 79.2471 418.702 98.797C419.655 104.875 422.446 111.095 427.361 111.353L427.571 116.766L427.699 122.067" stroke="black" stroke-width="0.465" stroke-linecap="round" stroke-linejoin="round"/>
<path d="M424.496 104.492C424.496 104.492 426.402 106.061 428.871 104.288L424.496 104.492Z" fill="#FBFBFB"/>
<path d="M424.496 104.492C424.496 104.492 426.402 106.061 428.871 104.288" stroke="black" stroke-width="0.465" stroke-linecap="round" stroke-linejoin="round"/>
<path d="M446.047 72.0941C445.447 74.9956 447.311 77.8331 450.203 78.4315C453.105 79.0315 455.942 77.1675 456.542 74.2659C457.142 71.3644 455.278 68.5269 452.377 67.9269C449.485 67.3285 446.647 69.1926 446.047 72.0941Z" fill="black"/>
<path d="M427.361 111.353L427.571 116.766C431.039 115.508 433.794 113.087 435.671 109.239C432.783 111.211 429.982 112.267 427.361 111.353Z" fill="black"/>
<path d="M427.361 111.353L427.571 116.766C431.039 115.508 433.794 113.087 435.671 109.239C432.783 111.211 429.982 112.267 427.361 111.353Z" stroke="black" stroke-width="0.465" stroke-linecap="round" stroke-linejoin="round"/>
<path d="M417.961 90.3189C417.961 90.3189 425.508 88.1783 427.858 81.8034C427.858 81.8034 432.077 95.6001 446.282 92.6236C456.678 90.4439 452.356 76.0831 441.222 73.2847C433.671 71.3863 416.702 70.755 417.961 90.3189Z" fill="black"/>
<path d="M443.277 90.2721C445.419 88.8096 448.369 89.3705 449.821 91.522C451.292 93.6752 450.731 96.6251 448.58 98.0767C446.427 99.5485 443.478 98.9892 442.016 96.8267C440.839 94.4689 440.927 91.7549 443.277 90.2721Z" fill="#FBFBFB"/>
<path d="M443.277 90.2721C445.419 88.8096 448.369 89.3705 449.821 91.522C451.292 93.6752 450.731 96.6251 448.58 98.0767C446.427 99.5485 443.478 98.9892 442.016 96.8267C440.839 94.4689 440.927 91.7549 443.277 90.2721Z" stroke="black" stroke-width="0.465" stroke-linecap="round" stroke-linejoin="round"/>
<path d="M424.802 95.2142C424.358 96.6142 423.915 98.0157 423.471 99.4157C423.402 99.6345 423.338 99.872 423.577 100.064C424.011 100.414 425.108 100.409 425.988 100.359" fill="#FBFBFB"/>
<path d="M424.802 95.2142C424.358 96.6142 423.915 98.0157 423.471 99.4157C423.402 99.6345 423.338 99.872 423.577 100.064C424.011 100.414 425.108 100.409 425.988 100.359" stroke="black" stroke-width="0.465" stroke-linecap="round" stroke-linejoin="round"/>
<path d="M415.077 95.1955C415.077 97.9673 416.819 100.216 418.972 100.216C421.126 100.216 422.869 97.9673 422.869 95.1955C422.869 92.4127 421.126 90.1736 418.972 90.1736C416.819 90.1736 415.077 92.4127 415.077 95.1955Z" stroke="black" stroke-width="0.465" stroke-linecap="round" stroke-linejoin="round"/>
<path d="M426.525 94.8173C426.525 97.5892 428.269 99.8392 430.422 99.8392C432.575 99.8392 434.319 97.5892 434.319 94.8173C434.319 92.0346 432.575 89.7971 430.422 89.7971C428.269 89.7971 426.525 92.0346 426.525 94.8173Z" stroke="black" stroke-width="0.465" stroke-linecap="round" stroke-linejoin="round"/>
<path d="M445.589 89.0424L433.908 92.572" stroke="black" stroke-width="0.465" stroke-linecap="round" stroke-linejoin="round"/>
<path d="M427.062 92.2736C425.591 91.2877 423.944 91.3377 422.143 92.2736H427.062Z" fill="#FBFBFB"/>
<path d="M427.062 92.2736C425.591 91.2877 423.944 91.3377 422.143 92.2736" stroke="black" stroke-width="0.465" stroke-linecap="round" stroke-linejoin="round"/>
<path d="M418.001 93.6486H415.265" stroke="black" stroke-width="0.465" stroke-linecap="round" stroke-linejoin="round"/>
<path d="M418.972 94.822C418.972 95.5111 419.333 96.0642 419.791 96.0642C420.24 96.0642 420.601 95.5111 420.601 94.822C420.601 94.133 420.24 93.5705 419.791 93.5705C419.333 93.5705 418.972 94.133 418.972 94.822Z" fill="black"/>
<path d="M428.057 94.1814C428.057 94.8705 428.416 95.4252 428.874 95.4252C429.322 95.4252 429.683 94.8705 429.683 94.1814C429.683 93.4924 429.322 92.9314 428.874 92.9314C428.416 92.9314 428.057 93.4924 428.057 94.1814Z" fill="black"/>
<path d="M442.962 101.067C442.903 104.207 443.804 106.77 444.975 106.792C446.147 106.814 447.143 104.287 447.202 101.147C447.261 98.0143 446.361 95.4501 445.189 95.428C444.017 95.406 443.021 97.9346 442.962 101.067Z" fill="#314CF9"/>
<path d="M375.666 170.775V195.469C375.666 197.133 374.316 198.481 372.652 198.481H347.96C346.295 198.481 344.947 197.133 344.947 195.469V170.775C344.947 169.111 346.295 167.763 347.96 167.763H372.652C374.316 167.763 375.666 169.111 375.666 170.775Z" fill="#FFA186"/>
<path d="M375.666 220.317V245.01C375.666 246.674 374.316 248.024 372.652 248.024H347.96C346.295 248.024 344.947 246.674 344.947 245.01V220.317C344.947 218.653 346.295 217.303 347.96 217.303H372.652C374.316 217.303 375.666 218.653 375.666 220.317Z" fill="#75C675"/>
<path d="M375.666 269.858V294.552C375.666 296.216 374.316 297.564 372.652 297.564H347.96C346.295 297.564 344.947 296.216 344.947 294.552V269.858C344.947 268.194 346.295 266.846 347.96 266.846H372.652C374.316 266.846 375.666 268.194 375.666 269.858Z" fill="#3A9BF3"/>
<path d="M388.608 175.931H524.873" stroke="black" stroke-width="0.465" stroke-linecap="round" stroke-linejoin="round"/>
<path d="M388.608 183.122H429.405" stroke="black" stroke-width="0.465" stroke-linecap="round" stroke-linejoin="round"/>
<path d="M454.573 183.122H479.74" stroke="black" stroke-width="0.465" stroke-linecap="round" stroke-linejoin="round"/>
<path d="M388.608 190.313H465.213" stroke="black" stroke-width="0.465" stroke-linecap="round" stroke-linejoin="round"/>
<path d="M486.855 190.313H524.874" stroke="black" stroke-width="0.465" stroke-linecap="round" stroke-linejoin="round"/>
<path d="M388.608 225.472H524.873" stroke="black" stroke-width="0.465" stroke-linecap="round" stroke-linejoin="round"/>
<path d="M388.608 232.664H429.405" stroke="black" stroke-width="0.465" stroke-linecap="round" stroke-linejoin="round"/>
<path d="M454.573 232.664H479.74" stroke="black" stroke-width="0.465" stroke-linecap="round" stroke-linejoin="round"/>
<path d="M388.608 239.855H465.213" stroke="black" stroke-width="0.465" stroke-linecap="round" stroke-linejoin="round"/>
<path d="M486.855 239.855H524.874" stroke="black" stroke-width="0.465" stroke-linecap="round" stroke-linejoin="round"/>
<path d="M388.608 275.014H524.873" stroke="black" stroke-width="0.465" stroke-linecap="round" stroke-linejoin="round"/>
<path d="M388.608 282.205H429.405" stroke="black" stroke-width="0.465" stroke-linecap="round" stroke-linejoin="round"/>
<path d="M454.573 282.205H479.74" stroke="black" stroke-width="0.465" stroke-linecap="round" stroke-linejoin="round"/>
<path d="M388.608 289.395H465.213" stroke="black" stroke-width="0.465" stroke-linecap="round" stroke-linejoin="round"/>
<path d="M486.855 289.395H524.874" stroke="black" stroke-width="0.465" stroke-linecap="round" stroke-linejoin="round"/>
<path d="M354.292 178.596L362.163 186.955L378.989 171.214" stroke="black" stroke-width="0.665" stroke-linecap="round" stroke-linejoin="round"/>
<path d="M354.292 228.342L362.163 236.702L378.989 220.96" stroke="black" stroke-width="0.665" stroke-linecap="round" stroke-linejoin="round"/>
<path d="M354.292 279.953L362.163 288.313L378.989 272.571" stroke="black" stroke-width="0.665" stroke-linecap="round" stroke-linejoin="round"/>
<path d="M248.465 190.536C248.956 209.892 252.997 221.022 248.027 223.85C246.94 224.469 245.305 224.768 242.036 225.364C239.083 225.904 236.869 226.018 233.694 226.172C226.897 226.5 223.498 226.663 222.575 226.673C216.541 226.736 206.085 226.844 198.303 223.584C186.763 218.749 179.023 205.634 177.352 193.613C173.989 169.413 195.103 148.636 200.827 150.174C201.042 150.231 202.753 150.909 206.175 152.262C208.325 153.112 209.497 153.589 211.388 154.285C212.848 154.824 213.965 155.209 214.862 155.517C221.008 157.623 224.083 158.677 226.648 159.437C227.524 159.696 231.626 160.903 236.292 161.954C237.595 162.248 240.032 162.793 243.294 163.331C244.207 163.482 244.16 163.464 244.246 163.486C248.351 164.511 248.213 180.596 248.465 190.536Z" fill="#314CF9"/>
<path d="M327.281 156.46C322.696 149.253 318.112 142.048 313.527 134.841L311.12 139.576C310.813 140.305 310.506 141.033 310.199 141.762C312.96 144.374 315.721 146.987 318.481 149.599C321.414 151.886 324.348 154.173 327.281 156.46Z" fill="white"/>
<path d="M312.581 135.868L317.063 123.639C317.063 123.639 322.75 101.953 327.351 102.252C332.77 102.605 325.73 125.084 325.73 125.084C328.01 120.791 332.127 122.138 331.097 126.024C333.371 123.49 336.711 124.571 335.763 127.869C335.763 127.869 339.747 127.315 338.591 133.037C337.434 138.759 334.425 143.884 331.834 146.671C329.741 148.924 326.614 150.971 327.255 158.086" fill="white"/>
<path d="M312.581 135.868L317.063 123.639C317.063 123.639 322.75 101.953 327.351 102.252C332.77 102.605 325.73 125.084 325.73 125.084C328.01 120.791 332.127 122.138 331.097 126.024C333.371 123.49 336.711 124.571 335.763 127.869C335.763 127.869 339.747 127.315 338.591 133.037C337.434 138.759 334.425 143.884 331.834 146.671C329.741 148.924 326.614 150.971 327.255 158.086" stroke="black" stroke-width="0.465" stroke-linecap="round" stroke-linejoin="round"/>
<path d="M315.921 133.058C317.921 130.976 316.259 127.728 316.259 127.728C316.259 127.728 320.276 126.461 321.498 125.785C323.971 124.418 323.745 121.908 321.288 120.947C318.463 119.842 313.259 119.87 309.299 122.797C305.34 125.723 309.491 132.035 310.489 134.91C311.131 136.758 311.032 138.324 310.149 142.73" fill="white"/>
<path d="M315.921 133.058C317.921 130.976 316.259 127.728 316.259 127.728C316.259 127.728 320.276 126.461 321.498 125.785C323.971 124.418 323.745 121.908 321.288 120.947C318.463 119.842 313.259 119.87 309.299 122.797C305.34 125.723 309.491 132.035 310.489 134.91C311.131 136.758 311.032 138.324 310.149 142.73" stroke="black" stroke-width="0.465" stroke-linecap="round" stroke-linejoin="round"/>
<path d="M335.763 127.869L334.229 131.754L335.763 127.869Z" fill="white"/>
<path d="M335.763 127.869L334.229 131.754" stroke="black" stroke-width="0.465" stroke-linecap="round" stroke-linejoin="round"/>
<path d="M331.235 125.748L329.632 129.561L331.235 125.748Z" fill="white"/>
<path d="M331.235 125.748L329.632 129.561" stroke="black" stroke-width="0.465" stroke-linecap="round" stroke-linejoin="round"/>
<path d="M325.878 124.698L324.633 128.075L325.878 124.698Z" fill="white"/>
<path d="M325.878 124.698L324.633 128.075" stroke="black" stroke-width="0.465" stroke-linecap="round" stroke-linejoin="round"/>
<path d="M330.463 159.083L306.786 137.819C305.123 136.323 302.461 136.76 301.419 138.755C284.64 170.738 251.499 170.365 206.225 152.282L222.915 226.661C231.006 226.459 238.854 225.885 246.422 224.807C251.607 224.083 256.667 223.132 261.581 221.909C261.986 221.803 262.379 221.713 262.769 221.594C276.116 218.144 288.365 212.689 299.222 204.527C311.994 194.889 322.845 181.481 331.31 163.091C331.94 161.715 331.591 160.089 330.463 159.083Z" fill="#314CF9"/>
<path d="M297.036 149.568L317.283 167.942" stroke="black" stroke-width="0.465" stroke-linecap="round" stroke-linejoin="round"/>
<path d="M246.422 224.807C238.747 225.901 230.787 226.478 222.575 226.673C222.473 224.319 214.179 184.687 214.179 184.687C225.811 195.79 235.08 212.914 246.422 224.807Z" fill="black"/>
<path d="M307.72 146.497C307.78 147.884 306.702 149.081 305.296 149.141C303.907 149.201 302.731 148.104 302.671 146.717C302.611 145.328 303.688 144.133 305.076 144.073C306.482 144.013 307.66 145.109 307.72 146.497Z" fill="white"/>
<path d="M299.222 204.527C288.365 212.689 276.116 218.144 262.77 221.594C262.622 209.701 271.95 199.757 283.929 199.239C289.737 198.987 295.114 200.997 299.222 204.527Z" fill="black"/>
<path d="M210.808 170.504L219.055 206.075" stroke="black" stroke-width="0.465" stroke-linecap="round" stroke-linejoin="round"/>
<path d="M228.055 291.934C228.055 291.934 205.956 322.838 190.178 322.975C174.4 323.113 156.606 280.664 156.606 280.664C188.069 275.678 219.349 270.897 228.055 291.934Z" fill="black"/>
<path d="M166.671 301.883C166.671 301.883 144.571 332.784 128.793 332.922C113.014 333.059 95.2207 290.611 95.2207 290.611C126.683 285.625 157.964 280.845 166.671 301.883Z" fill="black"/>
<path d="M239.199 474.039H182.366L144.886 279.105L218.98 275.314L222.303 307.961L227.764 361.661L234.089 423.852L238.232 464.478L239.199 474.039Z" fill="white"/>
<path d="M179.632 300.961L174.514 433.205L152.236 326.852L179.632 300.961Z" fill="black"/>
<path d="M239.199 474.039H182.366L144.886 279.105L218.98 275.314L222.303 307.961L227.764 361.661L234.089 423.852L238.232 464.478L239.199 474.039Z" stroke="black" stroke-width="0.465" stroke-linecap="round" stroke-linejoin="round"/>
<path d="M181.794 284.61L176.832 322.103L163.011 426.428L157.61 467.202L156.702 474.039H99.8691L100.235 448.653L100.527 429.108L101.405 368.189L102.168 316.217L102.68 280.672L148.518 282.955L181.794 284.61Z" fill="white"/>
<path d="M102.677 280.664L99.866 474.031H156.7L181.797 284.613L102.677 280.664Z" stroke="black" stroke-width="0.465" stroke-linecap="round" stroke-linejoin="round"/>
<path d="M163.013 480.281V485.894C163.013 489.517 160.074 492.455 156.45 492.455H98.7472C95.1238 492.455 92.1863 489.517 92.1863 485.894V480.281C92.1863 476.658 95.1238 473.72 98.7472 473.72H156.45C160.074 473.72 163.013 476.658 163.013 480.281Z" fill="black"/>
<path d="M246.163 480.281V485.894C246.163 489.517 243.225 492.455 239.602 492.455H181.899C178.275 492.455 175.336 489.517 175.336 485.894V480.281C175.336 476.658 178.275 473.72 181.899 473.72H239.602C243.225 473.72 246.163 476.658 246.163 480.281Z" fill="black"/>
<path d="M180.167 524.931C180.167 527.264 178.277 529.155 175.944 529.155H108.252C105.919 529.155 104.028 527.264 104.028 524.931V492.46H144.885L153.189 504.161L167.842 508.472C175.144 510.61 180.167 517.325 180.167 524.931Z" fill="#FFAE44"/>
<path d="M267.493 524.931C267.493 527.264 265.602 529.155 263.269 529.155H195.577C193.244 529.155 191.354 527.264 191.354 524.931V492.46H232.208L240.514 504.161L255.168 508.472C262.469 510.61 267.493 517.325 267.493 524.931Z" fill="#FFAE44"/>
<path d="M104.028 522.565V524.931C104.028 527.264 105.919 529.154 108.252 529.154H175.944C178.277 529.154 180.167 527.264 180.167 524.931C180.167 524.129 180.105 523.342 179.994 522.565H104.028Z" fill="black"/>
<path d="M191.354 522.565V524.931C191.354 527.264 193.244 529.154 195.577 529.154H263.269C265.602 529.154 267.493 527.264 267.493 524.931C267.493 524.129 267.43 523.342 267.319 522.565H191.354Z" fill="black"/>
<path d="M114.736 501.826C114.736 503.93 113.024 505.652 110.91 505.652C108.796 505.652 107.083 503.93 107.083 501.826C107.083 499.71 108.796 497.986 110.91 497.986C113.024 497.986 114.736 499.71 114.736 501.826Z" fill="black"/>
<path d="M203.658 501.826C203.658 503.93 201.946 505.652 199.832 505.652C197.717 505.652 196.003 503.93 196.003 501.826C196.003 499.71 197.717 497.986 199.832 497.986C201.946 497.986 203.658 499.71 203.658 501.826Z" fill="black"/>
<path d="M197.46 148.194C169.321 134.519 127.011 137.709 94.1004 162.95C83.8957 170.781 74.5988 180.724 66.8988 192.949C59.2707 205.07 53.2113 219.431 49.4191 236.18C49.0676 237.688 49.741 239.269 51.0582 240.103L79.8113 258.272C81.9629 259.633 84.7894 258.461 85.3754 255.988C91.0113 232.666 100.835 218.245 111.141 209.33C101.654 235.184 96.7504 262.444 95.2863 290.758C128.3 310.552 190.564 275.05 228.058 291.93L219.274 227.294C219.388 227.295 219.5 227.294 219.614 227.295L206.155 152.266C203.302 150.981 200.405 149.625 197.46 148.194Z" fill="#314CF9"/>
<path d="M86.6768 244.702L60.5706 230.097" stroke="black" stroke-width="0.465" stroke-linecap="round" stroke-linejoin="round"/>
<path d="M177.174 141.803L169.952 161.527L156.493 140.194" fill="white"/>
<path d="M156.493 140.194C156.493 140.194 154.71 120.702 154.71 115.525C154.71 103.988 161.566 97.0048 172.008 97.0048C181.713 97.0048 189.116 102.703 190.197 113.108C192.424 115.664 194.611 119.416 194.191 120.739C193.797 122.011 191.864 121.835 189.536 121.503C187.819 127.927 186.413 133.53 175.571 134.886L177.174 141.803" fill="white"/>
<path d="M156.493 140.194C156.493 140.194 154.71 120.702 154.71 115.525C154.71 103.988 161.566 97.0048 172.008 97.0048C181.713 97.0048 189.116 102.703 190.197 113.108C192.424 115.664 194.611 119.416 194.191 120.739C193.797 122.011 191.864 121.835 189.536 121.503C187.819 127.927 186.413 133.53 175.571 134.886L177.174 141.803" stroke="black" stroke-width="0.465" stroke-linecap="round" stroke-linejoin="round"/>
<path d="M189.155 108.322C189.155 108.322 189.293 104.619 194.243 98.4048C199.193 92.1908 191.61 78.0642 181.243 88.108C181.243 88.108 175.347 86.2939 173.533 82.0173C171.719 77.7408 154.418 76.3798 157.463 89.7283C160.508 103.077 151.458 93.1876 149.233 93.7126C143.375 95.0955 139.999 115.197 153.575 117.397C163.472 119.002 169.644 108.13 167.441 102.558C165.238 96.9861 178.982 95.358 189.155 108.322Z" fill="black"/>
<path d="M189.155 108.322C189.155 108.322 189.293 104.619 194.243 98.4048C199.193 92.1908 191.61 78.0642 181.243 88.108C181.243 88.108 175.347 86.2939 173.533 82.0173C171.719 77.7408 154.418 76.3798 157.463 89.7283C160.508 103.077 151.458 93.1876 149.233 93.7126C143.375 95.0955 139.999 115.197 153.575 117.397C163.472 119.002 169.644 108.13 167.441 102.558C165.238 96.9861 178.982 95.358 189.155 108.322Z" stroke="black" stroke-width="0.465" stroke-linecap="round" stroke-linejoin="round"/>
<path d="M163.213 114.841C163.213 118.072 160.594 120.692 157.363 120.692C154.132 120.692 151.511 118.072 151.511 114.841C151.511 111.61 154.132 108.991 157.363 108.991C160.594 108.991 163.213 111.61 163.213 114.841Z" fill="white"/>
<path d="M163.213 114.841C163.213 118.072 160.594 120.692 157.363 120.692C154.132 120.692 151.511 118.072 151.511 114.841C151.511 111.61 154.132 108.991 157.363 108.991C160.594 108.991 163.213 111.61 163.213 114.841Z" stroke="black" stroke-width="0.465" stroke-linecap="round" stroke-linejoin="round"/>
<path d="M183.792 112.347C183.792 112.954 183.301 113.445 182.699 113.445C182.093 113.445 181.602 112.954 181.602 112.347C181.602 111.745 182.093 111.255 182.699 111.255C183.301 111.255 183.792 111.745 183.792 112.347Z" fill="black"/>
<path d="M178.474 108.294C178.474 108.294 182.118 105.325 185.602 109.205L178.474 108.294Z" fill="white"/>
<path d="M178.474 108.294C178.474 108.294 182.118 105.325 185.602 109.205" stroke="black" stroke-width="0.465" stroke-linecap="round" stroke-linejoin="round"/>
<path d="M179.816 124.525C179.816 124.525 183.36 128.244 187.646 126.941L179.816 124.525Z" fill="white"/>
<path d="M179.816 124.525C179.816 124.525 183.36 128.244 187.646 126.941" stroke="black" stroke-width="0.465" stroke-linecap="round" stroke-linejoin="round"/>
<path d="M111.138 209.335C111.138 209.335 119.93 192.736 136.861 184.991" stroke="black" stroke-width="0.465" stroke-linecap="round" stroke-linejoin="round"/>
<path d="M115.429 304.945L31.135 254.434L36.3506 245.731L120.645 296.242C123.048 297.682 123.827 300.797 122.387 303.201C120.947 305.604 117.832 306.385 115.429 304.945Z" fill="#CAD5FF"/>
<path d="M115.429 304.945L31.135 254.434L36.3506 245.731L120.645 296.242C123.048 297.682 123.827 300.797 122.387 303.201C120.947 305.604 117.832 306.385 115.429 304.945Z" stroke="black" stroke-width="0.465" stroke-linecap="round" stroke-linejoin="round"/>
<path d="M110.215 313.647L25.9209 263.136L31.135 254.434L115.429 304.945C117.832 306.385 118.613 309.5 117.173 311.903C115.733 314.306 112.618 315.087 110.215 313.647Z" fill="white"/>
<path d="M110.215 313.647L25.9209 263.136L31.135 254.434L115.429 304.945C117.832 306.385 118.613 309.5 117.173 311.903C115.733 314.306 112.618 315.087 110.215 313.647Z" stroke="black" stroke-width="0.465" stroke-linecap="round" stroke-linejoin="round"/>
<path d="M105.001 322.35L20.7067 271.838L25.9209 263.136L110.215 313.647C112.618 315.087 113.399 318.202 111.959 320.606C110.519 323.009 107.404 323.79 105.001 322.35Z" fill="#CAD5FF"/>
<path d="M105.001 322.35L20.7067 271.838L25.9209 263.136L110.215 313.647C112.618 315.087 113.399 318.202 111.959 320.606C110.519 323.009 107.404 323.79 105.001 322.35Z" stroke="black" stroke-width="0.465" stroke-linecap="round" stroke-linejoin="round"/>
<path d="M20.7064 271.837L9.33059 265.021C2.12186 260.701 -0.220989 251.355 4.0996 244.146C8.42018 236.937 17.766 234.595 24.9747 238.915L36.3505 245.731L20.7064 271.837Z" fill="white"/>
<path d="M20.7064 271.837L9.33059 265.021C2.12186 260.701 -0.220989 251.355 4.0996 244.146C8.42018 236.937 17.766 234.595 24.9747 238.915L36.3505 245.731L20.7064 271.837Z" stroke="black" stroke-width="0.465" stroke-linecap="round" stroke-linejoin="round"/>
<path d="M15.9804 269.005L20.7064 271.837L36.3505 245.731L31.623 242.9L15.9804 269.005Z" fill="#FFA186"/>
<path d="M15.9804 269.005L20.7064 271.837L36.3505 245.731L31.623 242.9L15.9804 269.005Z" stroke="black" stroke-width="0.465" stroke-linecap="round" stroke-linejoin="round"/>
<path d="M107.838 323.061C108.177 323.048 108.516 322.998 108.845 322.916C110.101 322.601 111.24 321.807 111.959 320.605C113.209 318.518 112.783 315.896 111.077 314.297L111.192 314.102C112.132 314.419 113.125 314.45 114.058 314.215C115.314 313.9 116.453 313.106 117.172 311.905C118.425 309.814 117.999 307.19 116.292 305.591L116.409 305.398C117.349 305.715 118.342 305.745 119.273 305.516C120.532 305.197 121.67 304.402 122.389 303.2C123.401 301.512 123.316 299.47 122.342 297.906C124.719 301.111 131.817 310.818 135.703 317.627C137.636 321.011 138.779 323.675 138.159 324.474C137.574 325.231 134.808 325.434 131.127 325.34C123.607 325.136 112.263 323.669 107.838 323.061Z" fill="white"/>
<path d="M107.838 323.061C108.177 323.048 108.516 322.998 108.845 322.916C110.101 322.601 111.24 321.807 111.959 320.605C113.209 318.518 112.783 315.896 111.077 314.297L111.192 314.102C112.132 314.419 113.125 314.45 114.058 314.215C115.314 313.9 116.453 313.106 117.172 311.905C118.425 309.814 117.999 307.19 116.292 305.591L116.409 305.398C117.349 305.715 118.342 305.745 119.273 305.516C120.532 305.197 121.67 304.402 122.389 303.2C123.401 301.512 123.316 299.47 122.342 297.906C124.719 301.111 131.817 310.818 135.703 317.627C137.636 321.011 138.779 323.675 138.159 324.474C137.574 325.231 134.808 325.434 131.127 325.34C123.607 325.136 112.263 323.669 107.838 323.061Z" stroke="black" stroke-width="0.465" stroke-linecap="round" stroke-linejoin="round"/>
<path d="M131.127 325.34C130.742 323.762 130.959 322.03 131.86 320.528C132.751 319.04 134.152 318.045 135.703 317.627C137.636 321.011 138.779 323.675 138.159 324.474C137.574 325.231 134.808 325.434 131.127 325.34Z" fill="black"/>
<path d="M81.1651 272.586C81.1651 272.586 77.5768 266.369 76.589 261.18C75.3838 254.848 75.7836 250.835 76.1963 247.351C76.0157 247.277 75.822 247.199 75.6414 247.125C68.8116 244.455 61.9696 243.026 57.7477 243.075C57.6992 244.245 57.4365 245.624 56.7777 247.093C55.9137 249.007 54.3474 251.056 51.6079 252.969C42.8906 259.072 41.1489 265.514 41.1489 265.514C37.3292 276.553 38.1603 282.585 42.2398 280.072C41.9184 284.436 43.3473 286.107 46.1431 284.11C46.2052 284.057 46.2804 284.007 46.3322 283.937C46.3954 287.269 47.7945 288.403 50.2833 286.628C50.8974 286.185 51.5438 285.153 52.1978 283.741C52.3909 286.676 53.7768 287.588 56.1164 285.909C60.5403 282.748 60.1115 264.753 68.4125 267.878L81.1651 272.586Z" fill="white"/>
<path d="M81.1651 272.586C81.1651 272.586 77.5768 266.369 76.589 261.18C75.3838 254.848 75.7836 250.835 76.1963 247.351C76.0157 247.277 75.822 247.199 75.6414 247.125C68.8116 244.455 61.9696 243.026 57.7477 243.075C57.6992 244.245 57.4365 245.624 56.7777 247.093C55.9137 249.007 54.3474 251.056 51.6079 252.969C42.8906 259.072 41.1489 265.514 41.1489 265.514C37.3292 276.553 38.1603 282.585 42.2398 280.072C41.9184 284.436 43.3473 286.107 46.1431 284.11C46.2052 284.057 46.2804 284.007 46.3322 283.937C46.3954 287.269 47.7945 288.403 50.2833 286.628C50.8974 286.185 51.5438 285.153 52.1978 283.741C52.3909 286.676 53.7768 287.588 56.1164 285.909C60.5403 282.748 60.1115 264.753 68.4125 267.878L81.1651 272.586Z" stroke="black" stroke-width="0.465" stroke-linecap="round" stroke-linejoin="round"/>
<path d="M42.2398 280.072C42.2398 280.072 43.2626 273.082 46.935 269.125L42.2398 280.072Z" fill="white"/>
<path d="M42.2398 280.072C42.2398 280.072 43.2626 273.082 46.935 269.125" stroke="black" stroke-width="0.465" stroke-linecap="round" stroke-linejoin="round"/>
<path d="M46.3668 283.902C46.3668 283.902 47.3913 276.914 51.0637 272.957L46.3668 283.902Z" fill="white"/>
<path d="M46.3668 283.902C46.3668 283.902 47.3913 276.914 51.0637 272.957" stroke="black" stroke-width="0.465" stroke-linecap="round" stroke-linejoin="round"/>
<path d="M52.1846 283.656C52.1846 283.656 52.8075 279.397 54.8286 275.647L52.1846 283.656Z" fill="white"/>
<path d="M52.1846 283.656C52.1846 283.656 52.8075 279.397 54.8286 275.647" stroke="black" stroke-width="0.465" stroke-linecap="round" stroke-linejoin="round"/>
<path d="M175.571 134.886L166.45 130.911C166.45 130.911 167.689 136.391 176.522 138.992L175.571 134.886Z" fill="black"/>
<path d="M175.571 134.886L166.45 130.911C166.45 130.911 167.689 136.391 176.522 138.992L175.571 134.886Z" stroke="black" stroke-width="0.465" stroke-linecap="round" stroke-linejoin="round"/>
<path d="M98.594 175.761C98.594 187.092 89.4143 196.27 78.0831 196.27C73.9549 196.27 70.119 195.056 66.8987 192.949C74.5987 180.724 83.8956 170.781 94.1002 162.95C96.9112 166.464 98.594 170.914 98.594 175.761Z" fill="black"/>
<path d="M123.999 193.844L99.866 250.938C102.561 235.563 104.778 227.306 111.308 209.025C115.743 202.622 120.421 195.517 123.999 193.844Z" fill="black"/>
<path d="M61.3676 240.292V234.549H49.8129C49.6816 235.092 49.5441 235.628 49.4191 236.18C49.0676 237.688 49.741 239.269 51.0582 240.103L79.8113 258.272C81.9629 259.633 84.7894 258.463 85.3754 255.989C85.3973 255.898 85.4207 255.813 85.4426 255.722L84.1816 246.697L61.3676 240.292Z" fill="#314CF9"/>
<path d="M80.9128 247.992C80.9128 249.381 79.7831 250.528 78.3769 250.528C76.9878 250.528 75.8582 249.381 75.8582 247.992C75.8582 246.602 76.9878 245.456 78.3769 245.456C79.7831 245.456 80.9128 246.602 80.9128 247.992Z" fill="white"/>
<path d="M203.241 230.411C203.241 242.045 189.03 251.489 171.486 251.489C153.942 251.489 139.731 242.045 139.731 230.411C139.731 218.766 153.942 209.335 171.486 209.335C189.03 209.335 203.241 218.766 203.241 230.411Z" stroke="black" stroke-width="0.665" stroke-miterlimit="10"/>
<path d="M563.584 399.25C560.161 402.557 554.71 402.463 551.403 399.041C548.1 395.623 548.191 390.17 551.613 386.863" stroke="black" stroke-width="0.465" stroke-linecap="round" stroke-linejoin="round"/>
<path d="M288.002 348.678C292.495 347.107 297.406 349.474 298.977 353.967C300.545 358.454 298.18 363.368 293.687 364.938" stroke="black" stroke-width="0.465" stroke-linecap="round" stroke-linejoin="round"/>
<path d="M2.22269 434.964C5.64499 431.657 11.0963 431.75 14.4035 435.172C17.7066 438.591 17.6152 444.043 14.1929 447.35" stroke="black" stroke-width="0.465" stroke-linecap="round" stroke-linejoin="round"/>
<path d="M256.63 18.0195C252.343 15.9544 250.544 10.8054 252.609 6.51871C254.673 2.23658 259.821 0.437003 264.107 2.50212" stroke="black" stroke-width="0.465" stroke-linecap="round" stroke-linejoin="round"/>
<path d="M128.418 79.2798L132.843 89.586L118.491 84.5376C113.133 86.4782 106.946 87.5891 100.355 87.5891C79.7941 87.5891 63.155 76.7735 63.155 63.4095C63.155 50.0454 79.7941 39.2298 100.355 39.2298C120.896 39.2298 137.535 50.0454 137.535 63.4095C137.535 69.4751 134.099 75.0344 128.418 79.2798Z" fill="white"/>
<path d="M128.418 79.2798L132.843 89.586L118.491 84.5376C113.133 86.4782 106.946 87.5891 100.355 87.5891C79.7941 87.5891 63.155 76.7735 63.155 63.4095C63.155 50.0454 79.7941 39.2298 100.355 39.2298C120.896 39.2298 137.535 50.0454 137.535 63.4095C137.535 69.4751 134.099 75.0344 128.418 79.2798Z" stroke="black" stroke-width="0.465" stroke-linecap="round" stroke-linejoin="round"/>
<path d="M116.996 63.7391C116.996 72.9345 109.546 80.3845 100.35 80.3845C91.1552 80.3845 83.6958 72.9345 83.6958 63.7391C83.6958 54.5438 91.1552 47.0845 100.35 47.0845C109.546 47.0845 116.996 54.5438 116.996 63.7391Z" fill="#CAD5FF"/>
<path d="M100.639 55.7892C103.011 55.7923 104.66 56.6861 105.588 58.4705C105.889 59.1142 106.039 59.8205 106.039 60.5876C106.036 62.3548 105.143 63.733 103.358 64.722C102.536 65.1939 101.81 65.7126 101.182 66.2767C100.98 66.5408 100.794 66.8955 100.622 67.3454C100.344 67.6939 100.016 67.8673 99.6441 67.8673C99.1488 67.8673 98.7941 67.5626 98.577 66.958L98.5426 66.7267C98.5441 66.1611 98.9551 65.4252 99.7785 64.5189C100.516 63.8689 101.516 63.1767 102.78 62.4423C103.432 62.0095 103.758 61.4017 103.76 60.6189V60.5142C103.761 58.8861 102.697 58.0705 100.566 58.0673C98.6129 58.0642 97.2895 58.7595 96.5988 60.1548C96.3113 60.433 96.0285 60.5705 95.7488 60.5705C95.2598 60.5705 94.9051 60.2986 94.6801 59.7564C94.6332 59.6705 94.6113 59.5517 94.6113 59.3955C94.6113 58.8064 95.1879 58.0158 96.3363 57.0251C97.5613 56.1986 98.9973 55.7877 100.639 55.7892ZM99.5488 69.983C100.254 69.983 100.783 70.3767 101.139 71.1595L101.197 71.5783C101.196 72.2689 100.772 72.7673 99.927 73.0767L99.5441 73.1455C98.4363 72.9423 97.8816 72.4173 97.8832 71.572V71.5502C97.8832 70.8142 98.3191 70.3142 99.1879 70.0517L99.5488 69.983Z" fill="white"/>
<path d="M259.069 90.0478L275.33 86.4657L278.911 102.729L262.65 106.311L259.069 90.0478Z" fill="#76C4FF"/>
<path d="M257.339 99.2013L246.171 86.8512L258.522 75.6841L269.689 88.0342L257.339 99.2013Z" fill="#FFA186"/>
</svg>
